<?xml version="1.0" encoding="UTF-8" standalone="no"?>
<svg
   xmlns:dc="http://purl.org/dc/elements/1.1/"
   xmlns:cc="http://creativecommons.org/ns#"
   xmlns:rdf="http://www.w3.org/1999/02/22-rdf-syntax-ns#"
   xmlns:svg="http://www.w3.org/2000/svg"
   xmlns="http://www.w3.org/2000/svg"
   xmlns:sodipodi="http://sodipodi.sourceforge.net/DTD/sodipodi-0.dtd"
   xmlns:inkscape="http://www.inkscape.org/namespaces/inkscape"
   width="8"
   height="14"
   fill="currentColor"
   class="bi bi-chevron-bar-left"
   viewBox="0 0 8 14"
   version="1.1"
   id="svg4"
   sodipodi:docname="chevron-bar-left.svg"
   inkscape:version="1.0.2-2 (e86c870879, 2021-01-15)">
  <metadata
     id="metadata10">
    <rdf:RDF>
      <cc:Work
         rdf:about="">
        <dc:format>image/svg+xml</dc:format>
        <dc:type
           rdf:resource="http://purl.org/dc/dcmitype/StillImage" />
        <dc:title />
      </cc:Work>
    </rdf:RDF>
  </metadata>
  <defs
     id="defs8" />
  <sodipodi:namedview
     pagecolor="#ffffff"
     bordercolor="#666666"
     borderopacity="1"
     objecttolerance="10"
     gridtolerance="10"
     guidetolerance="10"
     inkscape:pageopacity="0"
     inkscape:pageshadow="2"
     inkscape:window-width="1920"
     inkscape:window-height="1017"
     id="namedview6"
     showgrid="false"
     inkscape:zoom="26.5625"
     inkscape:cx="1.3456908"
     inkscape:cy="9.5983213"
     inkscape:window-x="-8"
     inkscape:window-y="-8"
     inkscape:window-maximized="1"
     inkscape:current-layer="svg4"
     inkscape:document-rotation="0" />
  <path
     fill-rule="evenodd"
     d="m 7.8531226,2.646 a 0.4999441,0.5 0 0 1 0,0.708 L 4.2065298,7 7.8531226,10.646 a 0.5005757,0.50063163 0 0 1 -0.7079208,0.708 l -3.9995533,-4 a 0.4999441,0.5 0 0 1 0,-0.708 l 3.9995533,-4 a 0.4999441,0.5 0 0 1 0.7079208,0 z M 0.49994407,0 A 0.4999441,0.5 0 0 0 0,0.5 v 13 a 0.49994413,0.50000002 0 0 0 0.99988825,0 V 0.5 A 0.4999441,0.5 0 0 0 0.49994407,0 Z"
     id="path2"
     style="stroke-width:0.999943" />
</svg>
