<?xml version="1.0" encoding="UTF-8" standalone="no"?>
<svg
   xmlns:dc="http://purl.org/dc/elements/1.1/"
   xmlns:cc="http://creativecommons.org/ns#"
   xmlns:rdf="http://www.w3.org/1999/02/22-rdf-syntax-ns#"
   xmlns:svg="http://www.w3.org/2000/svg"
   xmlns="http://www.w3.org/2000/svg"
   xmlns:sodipodi="http://sodipodi.sourceforge.net/DTD/sodipodi-0.dtd"
   xmlns:inkscape="http://www.inkscape.org/namespaces/inkscape"
   width="16"
   height="16"
   fill="currentColor"
   class="bi bi-github"
   viewBox="0 0 16 16"
   version="1.1"
   id="svg4"
   sodipodi:docname="github.svg"
   inkscape:version="1.0.2-2 (e86c870879, 2021-01-15)">
  <metadata
     id="metadata10">
    <rdf:RDF>
      <cc:Work
         rdf:about="">
        <dc:format>image/svg+xml</dc:format>
        <dc:type
           rdf:resource="http://purl.org/dc/dcmitype/StillImage" />
      </cc:Work>
    </rdf:RDF>
  </metadata>
  <defs
     id="defs8" />
  <sodipodi:namedview
     pagecolor="#ffffff"
     bordercolor="#666666"
     borderopacity="1"
     objecttolerance="10"
     gridtolerance="10"
     guidetolerance="10"
     inkscape:pageopacity="0"
     inkscape:pageshadow="2"
     inkscape:window-width="1920"
     inkscape:window-height="1017"
     id="namedview6"
     showgrid="false"
     inkscape:zoom="53.125"
     inkscape:cx="8"
     inkscape:cy="5.7411765"
     inkscape:window-x="-8"
     inkscape:window-y="-8"
     inkscape:window-maximized="1"
     inkscape:current-layer="svg4" />
  <path
     d="M 8,0 C 3.58,0 0,3.670552 0,8.2023507 0,11.831891 2.29,14.89752 5.47,15.984331 c 0.4,0.07177 0.55,-0.1743 0.55,-0.389612 0,-0.194805 -0.01,-0.840741 -0.01,-1.527687 C 4,14.44639 3.48,13.564638 3.32,13.103255 3.23,12.867438 2.84,12.139479 2.5,11.944673 2.22,11.790879 1.82,11.41152 2.49,11.401268 c 0.63,-0.01025 1.08,0.59467 1.23,0.84074 0.72,1.240606 1.87,0.892006 2.33,0.676694 C 6.12,12.38555 6.33,12.026697 6.56,11.821638 4.78,11.616579 2.92,10.909126 2.92,7.7717273 2.92,6.8797217 3.23,6.1415101 3.74,5.5673456 3.66,5.3622868 3.38,4.5215458 3.82,3.3937226 c 0,0 0.67,-0.2153117 2.2,0.840741 0.64,-0.1845529 1.32,-0.2768294 2,-0.2768294 0.68,0 1.36,0.092276 2,0.2768294 1.53,-1.0663056 2.2,-0.840741 2.2,-0.840741 0.44,1.1278232 0.16,1.9685642 0.08,2.173623 0.51,0.5741645 0.82,1.3021231 0.82,2.2043817 0,3.1476517 -1.87,3.8448517 -3.65,4.0499107 0.29,0.256323 0.54,0.748465 0.54,1.517435 0,1.097064 -0.01,1.978817 -0.01,2.255646 0,0.215312 0.15,0.471636 0.55,0.389612 A 8.012,8.2146543 0 0 0 16,8.2023507 C 16,3.670552 12.42,0 8,0 Z"
     id="path2"
     style="stroke-width:1.01257" />
</svg>
