<?xml version="1.0" encoding="UTF-8" standalone="no"?>
<svg
   xmlns:dc="http://purl.org/dc/elements/1.1/"
   xmlns:cc="http://creativecommons.org/ns#"
   xmlns:rdf="http://www.w3.org/1999/02/22-rdf-syntax-ns#"
   xmlns:svg="http://www.w3.org/2000/svg"
   xmlns="http://www.w3.org/2000/svg"
   xmlns:sodipodi="http://sodipodi.sourceforge.net/DTD/sodipodi-0.dtd"
   xmlns:inkscape="http://www.inkscape.org/namespaces/inkscape"
   width="120"
   height="120"
   viewBox="0 0 31.749999 31.750001"
   version="1.1"
   id="svg877"
   inkscape:version="1.0.2-2 (e86c870879, 2021-01-15)"
   sodipodi:docname="github.svg">
  <defs
     id="defs871" />
  <sodipodi:namedview
     id="base"
     pagecolor="#ffffff"
     bordercolor="#666666"
     borderopacity="1.0"
     inkscape:pageopacity="0.0"
     inkscape:pageshadow="2"
     inkscape:zoom="2.8284271"
     inkscape:cx="40.626752"
     inkscape:cy="49.233751"
     inkscape:document-units="mm"
     inkscape:current-layer="layer1"
     inkscape:document-rotation="0"
     showgrid="false"
     units="px"
     inkscape:snap-global="false"
     inkscape:window-width="1491"
     inkscape:window-height="1040"
     inkscape:window-x="234"
     inkscape:window-y="0"
     inkscape:window-maximized="0" />
  <metadata
     id="metadata874">
    <rdf:RDF>
      <cc:Work
         rdf:about="">
        <dc:format>image/svg+xml</dc:format>
        <dc:type
           rdf:resource="http://purl.org/dc/dcmitype/StillImage" />
        <dc:title></dc:title>
      </cc:Work>
    </rdf:RDF>
  </metadata>
  <g
     inkscape:label="Vrstva 1"
     inkscape:groupmode="layer"
     id="layer1">
    <path
       id="path2137"
       style="fill:#80806c;fill-opacity:1;stroke:none;stroke-width:1.91305;stroke-linecap:round;stroke-linejoin:round"
       d="M 15.875,0 A 15.875,16.25898 0 0 0 0,16.25898 15.875,16.25898 0 0 0 11.053589,31.75 c 0.0419,-0.0075 0.07484,-0.01044 0.116788,-0.0217 0.124491,-0.03344 0.247845,-0.08719 0.361219,-0.182597 0.113373,-0.09541 0.216721,-0.23237 0.30179,-0.432407 0.144399,-0.5968 0.232678,-1.193702 0.249597,-1.790502 0.01692,-0.596796 -0.0374,-1.193699 -0.179317,-1.790498 -0.732977,0.124652 -1.227748,0.196682 -1.632459,0.214881 -0.4047099,0.0182 -0.7192617,-0.01725 -1.0919225,-0.106911 C 8.6131624,27.476324 8.2031006,27.307556 7.8915079,27.121057 7.5799153,26.93456 7.3665759,26.730585 7.1923258,26.495469 6.8438257,26.025237 6.6527814,25.43131 6.150529,24.610232 5.6872308,24.043003 5.07737,23.548063 4.6865357,23.157932 4.4911184,22.962867 4.3505014,22.794195 4.3103313,22.655661 c -0.020085,-0.06927 -0.015198,-0.131111 0.020671,-0.184713 0.035868,-0.0536 0.1024232,-0.09911 0.205672,-0.136021 0.1901619,-0.03235 0.371416,-0.03874 0.5436362,-0.02435 0.17222,0.01439 0.3354459,0.04957 0.4898925,0.101089 0.3088936,0.103048 0.5828456,0.27075 0.8216553,0.464694 0.2388097,0.193943 0.4428101,0.414421 0.6128824,0.622414 0.1700726,0.207993 0.306079,0.40365 0.4087606,0.548847 0.2433659,0.34413 0.5106821,0.650583 0.8108032,0.901865 0.3001214,0.251281 0.6329688,0.447363 1.006657,0.570017 0.3736883,0.122653 0.7885695,0.171952 1.2526365,0.130199 0.464067,-0.04175 0.977485,-0.174592 1.548743,-0.416531 0.09183,-0.356939 0.181941,-0.714333 0.315227,-1.055352 0.133285,-0.341019 0.309394,-0.665448 0.573091,-0.956379 -0.327422,0.0083 -0.651064,-0.0098 -0.96945,-0.0524 -0.318386,-0.04256 -0.631181,-0.109797 -0.936893,-0.199533 -0.305713,-0.08974 -0.6046,-0.202356 -0.894003,-0.335553 C 9.8309095,22.500764 9.551059,22.346978 9.2816039,22.174031 8.7426936,21.828137 8.247155,21.406532 7.8098591,20.92391 7.3725632,20.441288 6.9935139,19.897725 6.6869304,19.308068 6.5336385,19.01324 6.3984951,18.706873 6.2833374,18.390854 6.1681793,18.074835 6.0725036,17.748919 5.9991169,17.415421 5.9257302,17.081923 5.8741328,16.740678 5.8461547,16.393413 c -0.027978,-0.347265 -0.03192,-0.700148 -0.010852,-1.057469 0.021067,-0.35732 0.067326,-0.71868 0.1410766,-1.082344 0.073751,-0.363664 0.17482,-0.729809 0.3048908,-1.096105 0.130071,-0.366296 0.289012,-0.733006 0.4790405,-1.098222 0.1900285,-0.365216 0.4109358,-0.7288 0.664559,-1.089225 C 7.3293549,10.422414 7.1973606,9.8049964 7.1902586,9.0927501 7.1867077,8.7366267 7.2144508,8.3566855 7.2936115,7.9500698 7.3727722,7.5434539 7.5031948,7.1098279 7.7054728,6.6464933 c 0.3947374,0.011791 0.7752281,0.073382 1.1446329,0.1704229 0.3694047,0.09704 0.7278413,0.2298239 1.0800374,0.3847747 0.7043919,0.3099013 1.3827549,0.7080125 2.0670569,1.0855197 0.507629,-0.1125335 1.043142,-0.2043805 1.613855,-0.2699243 0.570714,-0.065544 1.176468,-0.1047823 1.825212,-0.112204 0.648744,-0.00742 1.340323,0.017027 2.082043,0.07886 0.741721,0.061833 1.533675,0.1610479 2.383317,0.3032679 0.50208,-0.3254194 1.094833,-0.708191 1.797823,-1.0188324 0.351495,-0.155321 0.730557,-0.2923118 1.139466,-0.3953601 0.408908,-0.1030484 0.847669,-0.1721444 1.318782,-0.190535 0.159116,0.5553653 0.255633,1.0309075 0.309025,1.4485947 0.05339,0.4176875 0.06391,0.7774212 0.05116,1.1013977 -0.02549,0.6479534 -0.143819,1.1524959 -0.19637,1.6894099 0.398969,0.566195 0.728907,1.171249 0.985986,1.797909 0.257078,0.62666 0.441057,1.275259 0.54932,1.928108 0.108264,0.652848 0.140494,1.309808 0.09302,1.95457 -0.04748,0.644763 -0.174334,1.277015 -0.384473,1.879416 -0.105069,0.3012 -0.230721,0.594923 -0.377754,0.879107 -0.147034,0.284183 -0.315532,0.559064 -0.505396,0.821946 -0.189864,0.262882 -0.401544,0.513729 -0.635103,0.751025 -0.233559,0.237296 -0.488759,0.461035 -0.766879,0.66846 -0.278119,0.207426 -0.578724,0.398864 -0.90227,0.572134 -0.323546,0.173271 -0.670408,0.328275 -1.040247,0.463106 -0.369838,0.134831 -0.762777,0.249267 -1.179773,0.341375 -0.416995,0.09211 -0.857897,0.161843 -1.322916,0.206942 0.218306,0.26756 0.397419,0.547913 0.543636,0.838883 0.146217,0.290971 0.259371,0.592317 0.346749,0.902395 0.08738,0.310078 0.148896,0.62885 0.190686,0.953733 0.04179,0.324882 0.06393,0.655927 0.07338,0.991311 0.03781,1.341535 -0.129998,2.750064 -0.07958,4.087503 0.0046,0.160577 0.06035,0.280749 0.149861,0.37313 0.08951,0.09238 0.212897,0.156729 0.35295,0.205357 0.17045,0.05918 0.360458,0.08775 0.549321,0.122259 A 15.875,16.25898 0 0 0 31.75,16.25898 15.875,16.25898 0 0 0 15.875,0 Z" />
  </g>
</svg>
