<?xml version="1.0" encoding="UTF-8" standalone="no"?>
<svg
   xmlns:dc="http://purl.org/dc/elements/1.1/"
   xmlns:cc="http://creativecommons.org/ns#"
   xmlns:rdf="http://www.w3.org/1999/02/22-rdf-syntax-ns#"
   xmlns:svg="http://www.w3.org/2000/svg"
   xmlns="http://www.w3.org/2000/svg"
   xmlns:sodipodi="http://sodipodi.sourceforge.net/DTD/sodipodi-0.dtd"
   xmlns:inkscape="http://www.inkscape.org/namespaces/inkscape"
   width="16"
   height="16"
   fill="currentColor"
   class="bi bi-instagram"
   viewBox="0 0 16 16"
   version="1.1"
   id="svg4"
   sodipodi:docname="instagram -white.svg"
   inkscape:version="1.0.2-2 (e86c870879, 2021-01-15)">
  <metadata
     id="metadata10">
    <rdf:RDF>
      <cc:Work
         rdf:about="">
        <dc:format>image/svg+xml</dc:format>
        <dc:type
           rdf:resource="http://purl.org/dc/dcmitype/StillImage" />
      </cc:Work>
    </rdf:RDF>
  </metadata>
  <defs
     id="defs8" />
  <sodipodi:namedview
     pagecolor="#ffffff"
     bordercolor="#666666"
     borderopacity="1"
     objecttolerance="10"
     gridtolerance="10"
     guidetolerance="10"
     inkscape:pageopacity="0"
     inkscape:pageshadow="2"
     inkscape:window-width="1920"
     inkscape:window-height="1017"
     id="namedview6"
     showgrid="false"
     inkscape:zoom="53.125"
     inkscape:cx="8"
     inkscape:cy="8"
     inkscape:window-x="-8"
     inkscape:window-y="-8"
     inkscape:window-maximized="1"
     inkscape:current-layer="svg4"
     inkscape:document-rotation="0" />
  <path
     d="m 8,-0.00123456 c -2.1441975,0 -2.4138272,0.00987655 -3.2562963,0.04740741 C 3.9012346,0.08567904 3.3274074,0.21802474 2.8246914,0.41358032 A 3.868642,3.8686427 0 0 0 1.4251852,1.3251854 3.8785186,3.8785192 0 0 0 0.51358025,2.7246918 C 0.3180247,3.2264203 0.18469137,3.8012353 0.14617285,4.6407416 0.10864198,5.4851861 0.09876544,5.7538282 0.09876544,7.900989 c 0,2.145185 0.0098766,2.413827 0.04740741,3.256297 0.0395062,0.841481 0.17185185,1.415309 0.3674074,1.918025 0.20246914,0.519506 0.47209877,0.96 0.91160495,1.399506 0.4385185,0.439507 0.8790123,0.710124 1.3985185,0.911606 0.5037037,0.195555 1.0765432,0.328888 1.9180247,0.367407 0.8434567,0.03753 1.1120988,0.0474 3.2582716,0.0474 2.146173,0 2.413827,-0.0099 3.257284,-0.0474 0.840494,-0.0395 1.416296,-0.171852 1.919012,-0.367407 a 3.8676543,3.867655 0 0 0 1.398519,-0.911606 c 0.439506,-0.439506 0.709135,-0.88 0.911605,-1.399506 0.194567,-0.502716 0.327901,-1.076544 0.367408,-1.918025 0.03753,-0.84247 0.0474,-1.111112 0.0474,-3.2572846 0,-2.1461732 -0.0099,-2.4148153 -0.0474,-3.2582722 C 15.814325,3.8012353 15.680987,3.2264203 15.48642,2.7246918 A 3.8775309,3.8775315 0 0 0 14.574815,1.3251854 3.862716,3.8627167 0 0 0 13.175309,0.41358032 C 12.671605,0.21802474 12.09679,0.08469138 11.256297,0.04617285 10.41284,0.00864198 10.145185,-0.00123456 7.9980246,-0.00123456 h 0.00296 z M 7.2918519,1.4229632 h 0.7091358 c 2.1096293,0 2.3595063,0.00691 3.1920993,0.045433 0.77037,0.034568 1.189135,0.1639506 1.467654,0.2716049 0.368395,0.1432099 0.632098,0.3150618 0.908642,0.591605 0.276543,0.2765433 0.447408,0.5392594 0.590617,0.9086422 0.108642,0.2775309 0.237037,0.6962964 0.271605,1.4666669 0.03852,0.8325927 0.04642,1.0824693 0.04642,3.1911116 0,2.1086412 -0.0079,2.3595062 -0.04642,3.1920982 -0.03456,0.77037 -0.163951,1.188149 -0.271605,1.466667 a 2.4395062,2.4395066 0 0 1 -0.591605,0.907655 c -0.276543,0.276543 -0.539259,0.447407 -0.908642,0.590617 -0.276543,0.108642 -0.695308,0.237037 -1.466666,0.272593 -0.832593,0.03753 -1.08247,0.04642 -3.1920993,0.04642 -2.1096297,0 -2.3604939,-0.0089 -3.1930865,-0.04642 C 4.0375309,14.292104 3.6197531,14.163706 3.3412346,14.055064 A 2.4474074,2.4474078 0 0 1 2.4325926,13.464447 2.4493828,2.4493832 0 0 1 1.84,12.555805 C 1.7323457,12.278274 1.602963,11.859508 1.5683951,11.089138 1.5308642,10.256545 1.522963,10.006668 1.522963,7.8960508 c 0,-2.10963 0.0079,-2.3585189 0.045432,-3.1911117 C 1.6039506,3.9345686 1.7323457,3.5158031 1.8409876,3.2372845 1.9841975,2.8688894 2.1560494,2.6051856 2.4325926,2.3286424 2.7091359,2.0520991 2.9718518,1.8812349 3.3412346,1.738025 3.6197531,1.629383 4.0375309,1.5009879 4.8079012,1.4654323 c 0.728889,-0.03358 1.0113581,-0.043457 2.4839507,-0.044444 z m 4.9264201,1.3116052 a 0.94814815,0.94814831 0 1 0 0,1.8962966 0.94814815,0.94814831 0 0 0 0,-1.8962966 z M 8.0009877,3.8427167 a 4.0582716,4.0582723 0 1 0 0,8.1155573 4.0582716,4.0582723 0 0 0 0,-8.1155573 z m 0,1.4232102 a 2.634074,2.6340745 0 1 1 0,5.2681481 2.634074,2.6340745 0 0 1 0,-5.2681481 z"
     id="path2"
     style="fill:#ffffff;fill-opacity:1;stroke:#ffffff;stroke-width:0.197531;stroke-miterlimit:4;stroke-dasharray:none;stroke-opacity:1" />
</svg>
