<?xml version="1.0" encoding="UTF-8" standalone="no"?>
<svg
   xmlns:dc="http://purl.org/dc/elements/1.1/"
   xmlns:cc="http://creativecommons.org/ns#"
   xmlns:rdf="http://www.w3.org/1999/02/22-rdf-syntax-ns#"
   xmlns:svg="http://www.w3.org/2000/svg"
   xmlns="http://www.w3.org/2000/svg"
   xmlns:sodipodi="http://sodipodi.sourceforge.net/DTD/sodipodi-0.dtd"
   xmlns:inkscape="http://www.inkscape.org/namespaces/inkscape"
   width="120"
   height="120"
   viewBox="0 0 31.749999 31.750001"
   version="1.1"
   id="svg877"
   inkscape:version="1.0.2-2 (e86c870879, 2021-01-15)"
   sodipodi:docname="linkedin.svg">
  <defs
     id="defs871" />
  <sodipodi:namedview
     id="base"
     pagecolor="#ffffff"
     bordercolor="#666666"
     borderopacity="1.0"
     inkscape:pageopacity="0.0"
     inkscape:pageshadow="2"
     inkscape:zoom="4"
     inkscape:cx="63.845052"
     inkscape:cy="85.686184"
     inkscape:document-units="mm"
     inkscape:current-layer="layer1"
     inkscape:document-rotation="0"
     showgrid="false"
     units="px"
     inkscape:snap-global="false"
     inkscape:window-width="1491"
     inkscape:window-height="1040"
     inkscape:window-x="234"
     inkscape:window-y="0"
     inkscape:window-maximized="0" />
  <metadata
     id="metadata874">
    <rdf:RDF>
      <cc:Work
         rdf:about="">
        <dc:format>image/svg+xml</dc:format>
        <dc:type
           rdf:resource="http://purl.org/dc/dcmitype/StillImage" />
        <dc:title></dc:title>
      </cc:Work>
    </rdf:RDF>
  </metadata>
  <g
     inkscape:label="Vrstva 1"
     inkscape:groupmode="layer"
     id="layer1">
    <path
       id="path1516"
       style="fill:#678084;fill-opacity:0.581047;stroke:none;stroke-width:5.79916;stroke-linecap:round;stroke-linejoin:round"
       d="M 9.2851562 0.25195312 C 4.1408707 0.25195312 3.5527137e-15 4.3947769 0 9.5390625 L 0 110.9668 C 0 116.11108 4.1408707 120.25195 9.2851562 120.25195 L 110.71484 120.25195 C 115.85913 120.25195 120 116.11108 120 110.9668 L 120 9.5390625 C 120 4.3947769 115.85913 0.25195314 110.71484 0.25195312 L 9.2851562 0.25195312 z M 30.910156 18.939453 A 10.686094 11.030806 0 0 1 31.181641 18.943359 A 10.686094 11.030806 0 0 1 31.455078 18.955078 A 10.686094 11.030806 0 0 1 31.726562 18.972656 A 10.686094 11.030806 0 0 1 31.998047 18.998047 A 10.686094 11.030806 0 0 1 32.269531 19.029297 A 10.686094 11.030806 0 0 1 32.539062 19.070312 A 10.686094 11.030806 0 0 1 32.808594 19.115234 A 10.686094 11.030806 0 0 1 33.076172 19.169922 A 10.686094 11.030806 0 0 1 33.341797 19.230469 A 10.686094 11.030806 0 0 1 33.607422 19.296875 A 10.686094 11.030806 0 0 1 33.869141 19.371094 A 10.686094 11.030806 0 0 1 34.130859 19.453125 A 10.686094 11.030806 0 0 1 34.388672 19.541016 A 10.686094 11.030806 0 0 1 34.646484 19.636719 A 10.686094 11.030806 0 0 1 34.900391 19.738281 A 10.686094 11.030806 0 0 1 35.152344 19.847656 A 10.686094 11.030806 0 0 1 35.400391 19.962891 A 10.686094 11.030806 0 0 1 35.646484 20.083984 A 10.686094 11.030806 0 0 1 35.890625 20.210938 A 10.686094 11.030806 0 0 1 36.128906 20.345703 A 10.686094 11.030806 0 0 1 36.365234 20.486328 A 10.686094 11.030806 0 0 1 36.597656 20.632812 A 10.686094 11.030806 0 0 1 36.828125 20.787109 A 10.686094 11.030806 0 0 1 37.052734 20.945312 A 10.686094 11.030806 0 0 1 37.273438 21.109375 A 10.686094 11.030806 0 0 1 37.490234 21.279297 A 10.686094 11.030806 0 0 1 37.703125 21.457031 A 10.686094 11.030806 0 0 1 37.912109 21.638672 A 10.686094 11.030806 0 0 1 38.115234 21.826172 A 10.686094 11.030806 0 0 1 38.314453 22.017578 A 10.686094 11.030806 0 0 1 38.507812 22.214844 A 10.686094 11.030806 0 0 1 38.697266 22.417969 A 10.686094 11.030806 0 0 1 38.880859 22.625 A 10.686094 11.030806 0 0 1 39.060547 22.837891 A 10.686094 11.030806 0 0 1 39.234375 23.054688 A 10.686094 11.030806 0 0 1 39.402344 23.275391 A 10.686094 11.030806 0 0 1 39.564453 23.501953 A 10.686094 11.030806 0 0 1 39.722656 23.732422 A 10.686094 11.030806 0 0 1 39.873047 23.966797 A 10.686094 11.030806 0 0 1 40.019531 24.205078 A 10.686094 11.030806 0 0 1 40.158203 24.445312 A 10.686094 11.030806 0 0 1 40.292969 24.691406 A 10.686094 11.030806 0 0 1 40.419922 24.941406 A 10.686094 11.030806 0 0 1 40.541016 25.193359 A 10.686094 11.030806 0 0 1 40.65625 25.447266 A 10.686094 11.030806 0 0 1 40.763672 25.705078 A 10.686094 11.030806 0 0 1 40.867188 25.966797 A 10.686094 11.030806 0 0 1 40.962891 26.230469 A 10.686094 11.030806 0 0 1 41.050781 26.496094 A 10.686094 11.030806 0 0 1 41.134766 26.765625 A 10.686094 11.030806 0 0 1 41.210938 27.035156 A 10.686094 11.030806 0 0 1 41.279297 27.306641 A 10.686094 11.030806 0 0 1 41.341797 27.582031 A 10.686094 11.030806 0 0 1 41.396484 27.857422 A 10.686094 11.030806 0 0 1 41.445312 28.132812 A 10.686094 11.030806 0 0 1 41.488281 28.412109 A 10.686094 11.030806 0 0 1 41.523438 28.691406 A 10.686094 11.030806 0 0 1 41.550781 28.970703 A 10.686094 11.030806 0 0 1 41.572266 29.251953 A 10.686094 11.030806 0 0 1 41.587891 29.533203 A 10.686094 11.030806 0 0 1 41.59375 29.814453 A 10.686094 11.030806 0 0 1 41.595703 29.970703 A 10.686094 11.030806 0 0 1 41.591797 30.251953 A 10.686094 11.030806 0 0 1 41.582031 30.533203 A 10.686094 11.030806 0 0 1 41.564453 30.814453 A 10.686094 11.030806 0 0 1 41.539062 31.095703 A 10.686094 11.030806 0 0 1 41.507812 31.375 A 10.686094 11.030806 0 0 1 41.470703 31.654297 A 10.686094 11.030806 0 0 1 41.425781 31.931641 A 10.686094 11.030806 0 0 1 41.373047 32.207031 A 10.686094 11.030806 0 0 1 41.314453 32.482422 A 10.686094 11.030806 0 0 1 41.25 32.755859 A 10.686094 11.030806 0 0 1 41.177734 33.027344 A 10.686094 11.030806 0 0 1 41.097656 33.296875 A 10.686094 11.030806 0 0 1 41.013672 33.564453 A 10.686094 11.030806 0 0 1 40.919922 33.828125 A 10.686094 11.030806 0 0 1 40.822266 34.091797 A 10.686094 11.030806 0 0 1 40.716797 34.351562 A 10.686094 11.030806 0 0 1 40.605469 34.607422 A 10.686094 11.030806 0 0 1 40.488281 34.861328 A 10.686094 11.030806 0 0 1 40.363281 35.111328 A 10.686094 11.030806 0 0 1 40.234375 35.359375 A 10.686094 11.030806 0 0 1 40.097656 35.603516 A 10.686094 11.030806 0 0 1 39.955078 35.84375 A 10.686094 11.030806 0 0 1 39.806641 36.080078 A 10.686094 11.030806 0 0 1 39.654297 36.3125 A 10.686094 11.030806 0 0 1 39.494141 36.541016 A 10.686094 11.030806 0 0 1 39.328125 36.763672 A 10.686094 11.030806 0 0 1 39.158203 36.984375 A 10.686094 11.030806 0 0 1 38.982422 37.199219 A 10.686094 11.030806 0 0 1 38.800781 37.408203 A 10.686094 11.030806 0 0 1 38.615234 37.615234 A 10.686094 11.030806 0 0 1 38.423828 37.814453 A 10.686094 11.030806 0 0 1 38.226562 38.009766 A 10.686094 11.030806 0 0 1 38.025391 38.201172 A 10.686094 11.030806 0 0 1 37.820312 38.384766 A 10.686094 11.030806 0 0 1 37.609375 38.564453 A 10.686094 11.030806 0 0 1 37.394531 38.738281 A 10.686094 11.030806 0 0 1 37.175781 38.90625 A 10.686094 11.030806 0 0 1 36.953125 39.068359 A 10.686094 11.030806 0 0 1 36.726562 39.224609 A 10.686094 11.030806 0 0 1 36.496094 39.375 A 10.686094 11.030806 0 0 1 36.261719 39.519531 A 10.686094 11.030806 0 0 1 36.023438 39.65625 A 10.686094 11.030806 0 0 1 35.783203 39.787109 A 10.686094 11.030806 0 0 1 35.539062 39.914062 A 10.686094 11.030806 0 0 1 35.291016 40.03125 A 10.686094 11.030806 0 0 1 35.041016 40.144531 A 10.686094 11.030806 0 0 1 34.789062 40.25 A 10.686094 11.030806 0 0 1 34.533203 40.347656 A 10.686094 11.030806 0 0 1 34.275391 40.439453 A 10.686094 11.030806 0 0 1 34.015625 40.525391 A 10.686094 11.030806 0 0 1 33.753906 40.603516 A 10.686094 11.030806 0 0 1 33.490234 40.675781 A 10.686094 11.030806 0 0 1 33.224609 40.740234 A 10.686094 11.030806 0 0 1 32.957031 40.796875 A 10.686094 11.030806 0 0 1 32.689453 40.847656 A 10.686094 11.030806 0 0 1 32.419922 40.890625 A 10.686094 11.030806 0 0 1 32.150391 40.927734 A 10.686094 11.030806 0 0 1 31.878906 40.957031 A 10.686094 11.030806 0 0 1 31.607422 40.978516 A 10.686094 11.030806 0 0 1 31.333984 40.994141 A 10.686094 11.030806 0 0 1 31.0625 41 A 10.686094 11.030806 0 0 1 30.910156 41.001953 A 10.686094 11.030806 0 0 1 30.636719 40.998047 A 10.686094 11.030806 0 0 1 30.365234 40.988281 A 10.686094 11.030806 0 0 1 30.091797 40.96875 A 10.686094 11.030806 0 0 1 29.820312 40.945312 A 10.686094 11.030806 0 0 1 29.548828 40.912109 A 10.686094 11.030806 0 0 1 29.279297 40.873047 A 10.686094 11.030806 0 0 1 29.011719 40.826172 A 10.686094 11.030806 0 0 1 28.742188 40.773438 A 10.686094 11.030806 0 0 1 28.476562 40.712891 A 10.686094 11.030806 0 0 1 28.212891 40.644531 A 10.686094 11.030806 0 0 1 27.949219 40.570312 A 10.686094 11.030806 0 0 1 27.6875 40.488281 A 10.686094 11.030806 0 0 1 27.429688 40.400391 A 10.686094 11.030806 0 0 1 27.171875 40.304688 A 10.686094 11.030806 0 0 1 26.917969 40.203125 A 10.686094 11.030806 0 0 1 26.666016 40.095703 A 10.686094 11.030806 0 0 1 26.417969 39.980469 A 10.686094 11.030806 0 0 1 26.171875 39.859375 A 10.686094 11.030806 0 0 1 25.929688 39.730469 A 10.686094 11.030806 0 0 1 25.689453 39.595703 A 10.686094 11.030806 0 0 1 25.453125 39.455078 A 10.686094 11.030806 0 0 1 25.220703 39.308594 A 10.686094 11.030806 0 0 1 24.992188 39.15625 A 10.686094 11.030806 0 0 1 24.767578 38.998047 A 10.686094 11.030806 0 0 1 24.544922 38.832031 A 10.686094 11.030806 0 0 1 24.328125 38.662109 A 10.686094 11.030806 0 0 1 24.115234 38.486328 A 10.686094 11.030806 0 0 1 23.908203 38.304688 A 10.686094 11.030806 0 0 1 23.703125 38.117188 A 10.686094 11.030806 0 0 1 23.505859 37.923828 A 10.686094 11.030806 0 0 1 23.310547 37.726562 A 10.686094 11.030806 0 0 1 23.121094 37.525391 A 10.686094 11.030806 0 0 1 22.9375 37.316406 A 10.686094 11.030806 0 0 1 22.757812 37.103516 A 10.686094 11.030806 0 0 1 22.583984 36.886719 A 10.686094 11.030806 0 0 1 22.416016 36.666016 A 10.686094 11.030806 0 0 1 22.253906 36.439453 A 10.686094 11.030806 0 0 1 22.097656 36.210938 A 10.686094 11.030806 0 0 1 21.945312 35.976562 A 10.686094 11.030806 0 0 1 21.800781 35.738281 A 10.686094 11.030806 0 0 1 21.660156 35.496094 A 10.686094 11.030806 0 0 1 21.527344 35.25 A 10.686094 11.030806 0 0 1 21.398438 35.001953 A 10.686094 11.030806 0 0 1 21.277344 34.75 A 10.686094 11.030806 0 0 1 21.164062 34.494141 A 10.686094 11.030806 0 0 1 21.054688 34.236328 A 10.686094 11.030806 0 0 1 20.953125 33.974609 A 10.686094 11.030806 0 0 1 20.857422 33.710938 A 10.686094 11.030806 0 0 1 20.767578 33.445312 A 10.686094 11.030806 0 0 1 20.685547 33.177734 A 10.686094 11.030806 0 0 1 20.609375 32.908203 A 10.686094 11.030806 0 0 1 20.539062 32.634766 A 10.686094 11.030806 0 0 1 20.476562 32.361328 A 10.686094 11.030806 0 0 1 20.421875 32.085938 A 10.686094 11.030806 0 0 1 20.373047 31.808594 A 10.686094 11.030806 0 0 1 20.330078 31.53125 A 10.686094 11.030806 0 0 1 20.294922 31.251953 A 10.686094 11.030806 0 0 1 20.267578 30.970703 A 10.686094 11.030806 0 0 1 20.246094 30.691406 A 10.686094 11.030806 0 0 1 20.232422 30.410156 A 10.686094 11.030806 0 0 1 20.224609 30.128906 A 10.686094 11.030806 0 0 1 20.222656 29.970703 A 10.686094 11.030806 0 0 1 20.226562 29.689453 A 10.686094 11.030806 0 0 1 20.236328 29.408203 A 10.686094 11.030806 0 0 1 20.253906 29.126953 A 10.686094 11.030806 0 0 1 20.279297 28.847656 A 10.686094 11.030806 0 0 1 20.310547 28.568359 A 10.686094 11.030806 0 0 1 20.347656 28.289062 A 10.686094 11.030806 0 0 1 20.392578 28.011719 A 10.686094 11.030806 0 0 1 20.445312 27.734375 A 10.686094 11.030806 0 0 1 20.503906 27.460938 A 10.686094 11.030806 0 0 1 20.570312 27.1875 A 10.686094 11.030806 0 0 1 20.640625 26.916016 A 10.686094 11.030806 0 0 1 20.720703 26.646484 A 10.686094 11.030806 0 0 1 20.806641 26.378906 A 10.686094 11.030806 0 0 1 20.898438 26.113281 A 10.686094 11.030806 0 0 1 20.996094 25.851562 A 10.686094 11.030806 0 0 1 21.101562 25.591797 A 10.686094 11.030806 0 0 1 21.212891 25.333984 A 10.686094 11.030806 0 0 1 21.330078 25.080078 A 10.686094 11.030806 0 0 1 21.455078 24.830078 A 10.686094 11.030806 0 0 1 21.585938 24.582031 A 10.686094 11.030806 0 0 1 21.720703 24.339844 A 10.686094 11.030806 0 0 1 21.863281 24.099609 A 10.686094 11.030806 0 0 1 22.011719 23.863281 A 10.686094 11.030806 0 0 1 22.166016 23.630859 A 10.686094 11.030806 0 0 1 22.324219 23.402344 A 10.686094 11.030806 0 0 1 22.490234 23.177734 A 10.686094 11.030806 0 0 1 22.660156 22.958984 A 10.686094 11.030806 0 0 1 22.835938 22.744141 A 10.686094 11.030806 0 0 1 23.017578 22.533203 A 10.686094 11.030806 0 0 1 23.205078 22.328125 A 10.686094 11.030806 0 0 1 23.396484 22.126953 A 10.686094 11.030806 0 0 1 23.591797 21.931641 A 10.686094 11.030806 0 0 1 23.792969 21.742188 A 10.686094 11.030806 0 0 1 24 21.556641 A 10.686094 11.030806 0 0 1 24.208984 21.378906 A 10.686094 11.030806 0 0 1 24.423828 21.205078 A 10.686094 11.030806 0 0 1 24.642578 21.037109 A 10.686094 11.030806 0 0 1 24.865234 20.875 A 10.686094 11.030806 0 0 1 25.091797 20.71875 A 10.686094 11.030806 0 0 1 25.322266 20.568359 A 10.686094 11.030806 0 0 1 25.556641 20.423828 A 10.686094 11.030806 0 0 1 25.794922 20.285156 A 10.686094 11.030806 0 0 1 26.035156 20.154297 A 10.686094 11.030806 0 0 1 26.279297 20.029297 A 10.686094 11.030806 0 0 1 26.527344 19.910156 A 10.686094 11.030806 0 0 1 26.777344 19.798828 A 10.686094 11.030806 0 0 1 27.03125 19.693359 A 10.686094 11.030806 0 0 1 27.285156 19.59375 A 10.686094 11.030806 0 0 1 27.542969 19.501953 A 10.686094 11.030806 0 0 1 27.802734 19.416016 A 10.686094 11.030806 0 0 1 28.064453 19.337891 A 10.686094 11.030806 0 0 1 28.328125 19.267578 A 10.686094 11.030806 0 0 1 28.59375 19.203125 A 10.686094 11.030806 0 0 1 28.861328 19.144531 A 10.686094 11.030806 0 0 1 29.128906 19.09375 A 10.686094 11.030806 0 0 1 29.398438 19.050781 A 10.686094 11.030806 0 0 1 29.669922 19.015625 A 10.686094 11.030806 0 0 1 29.941406 18.986328 A 10.686094 11.030806 0 0 1 30.212891 18.962891 A 10.686094 11.030806 0 0 1 30.484375 18.949219 A 10.686094 11.030806 0 0 1 30.757812 18.941406 A 10.686094 11.030806 0 0 1 30.910156 18.939453 z M 80.816406 48.353516 C 82.784613 48.30026 84.804305 48.530654 86.779297 49.013672 C 88.754288 49.49669 90.684511 50.231841 92.470703 51.191406 C 94.256896 52.150972 95.898972 53.33455 97.300781 54.710938 C 98.001686 55.399131 98.6428 56.134815 99.210938 56.916016 C 99.779075 57.697216 100.27463 58.523883 100.68555 59.390625 C 101.09647 60.257367 101.42309 61.164558 101.65234 62.109375 C 101.8816 63.054192 102.01396 64.035354 102.03711 65.050781 L 101.92773 100.45117 L 83.748047 100.4707 L 83.404297 69.625 C 83.394451 68.744139 83.181325 67.960887 82.810547 67.277344 C 82.439769 66.593801 81.910272 66.011282 81.269531 65.53125 C 80.62879 65.051218 79.876377 64.674626 79.056641 64.404297 C 78.236904 64.133968 77.351123 63.968496 76.443359 63.914062 C 75.535596 63.859629 74.605994 63.91633 73.701172 64.083984 C 72.79635 64.251638 71.916381 64.531801 71.105469 64.927734 C 70.294557 65.323668 69.551815 65.834438 68.925781 66.464844 C 68.47644 66.917323 68.17322 67.504064 67.859375 68.080078 L 67.859375 100.37109 L 50.310547 100.37109 L 50.310547 48.371094 L 67.859375 48.371094 L 67.859375 55.902344 C 68.094367 55.444064 68.288995 54.940569 68.5625 54.527344 C 69.110283 53.699724 69.732073 52.961084 70.416016 52.308594 C 71.099958 51.656104 71.84497 51.088341 72.640625 50.603516 C 73.43628 50.11869 74.283097 49.717206 75.166016 49.392578 C 76.931854 48.743323 78.8482 48.406771 80.816406 48.353516 z M 22.304688 48.470703 L 39.853516 48.470703 L 39.853516 100.4707 L 22.304688 100.4707 L 22.304688 48.470703 z "
       transform="scale(0.26458333)" />
  </g>
</svg>
