<?xml version="1.0" encoding="UTF-8" standalone="no"?>
<svg
   xmlns:dc="http://purl.org/dc/elements/1.1/"
   xmlns:cc="http://creativecommons.org/ns#"
   xmlns:rdf="http://www.w3.org/1999/02/22-rdf-syntax-ns#"
   xmlns:svg="http://www.w3.org/2000/svg"
   xmlns="http://www.w3.org/2000/svg"
   xmlns:sodipodi="http://sodipodi.sourceforge.net/DTD/sodipodi-0.dtd"
   xmlns:inkscape="http://www.inkscape.org/namespaces/inkscape"
   width="16"
   height="16"
   fill="currentColor"
   class="bi bi-envelope"
   viewBox="0 0 16 16"
   version="1.1"
   id="svg4"
   sodipodi:docname="mail.svg"
   inkscape:version="1.0.2-2 (e86c870879, 2021-01-15)">
  <metadata
     id="metadata10">
    <rdf:RDF>
      <cc:Work
         rdf:about="">
        <dc:format>image/svg+xml</dc:format>
        <dc:type
           rdf:resource="http://purl.org/dc/dcmitype/StillImage" />
      </cc:Work>
    </rdf:RDF>
  </metadata>
  <defs
     id="defs8" />
  <sodipodi:namedview
     pagecolor="#ffffff"
     bordercolor="#666666"
     borderopacity="1"
     objecttolerance="10"
     gridtolerance="10"
     guidetolerance="10"
     inkscape:pageopacity="0"
     inkscape:pageshadow="2"
     inkscape:window-width="1920"
     inkscape:window-height="1017"
     id="namedview6"
     showgrid="false"
     inkscape:zoom="37.565048"
     inkscape:cx="5.598536"
     inkscape:cy="9.568258"
     inkscape:window-x="-8"
     inkscape:window-y="-8"
     inkscape:window-maximized="1"
     inkscape:current-layer="svg4" />
  <path
     id="path2"
     style="fill:#0a3e2b;fill-opacity:1;stroke:#0a3e2b;stroke-width:0.402604;stroke-miterlimit:4;stroke-dasharray:none;stroke-opacity:1"
     d="M 2.1212241,1.9902344 A 1.9496745,2.0033281 0 0 0 0.20130217,3.9941406 V 12.005859 A 1.9496745,2.0033281 0 0 0 2.1505209,14.009766 H 13.84974 a 1.9496745,2.0033281 0 0 0 1.949219,-2.003907 V 3.9941406 A 1.9496745,2.0033281 0 0 0 13.84974,1.9902344 H 2.1505209 a 1.9496745,2.0033281 0 0 0 -0.029297,0 z m 0.029297,1.0019531 H 13.84974 a 0.97483727,1.001664 0 0 1 0.974609,1.0019531 V 4.2109375 L 8.0001303,8.4179688 1.1759116,4.2109375 V 3.9941406 A 0.97483727,1.001664 0 0 1 2.1505209,2.9921875 Z M 1.1759116,5.3789062 5.7657553,8.2089844 1.1759116,11.109375 Z m 13.6484374,0 V 11.109375 L 10.234506,8.2089844 Z M 6.7071616,8.7890625 8.0001303,9.5859375 9.2930991,8.7890625 14.791146,12.265625 A 0.97483727,1.001664 0 0 1 13.84974,13.007812 H 2.1505209 A 0.97483727,1.001664 0 0 1 1.2091147,12.265625 Z" />
</svg>
